<svg xmlns="http://www.w3.org/2000/svg" width="1200" height="520" viewBox="0 0 1200 520" role="img" aria-labelledby="title desc">
  <title id="title">OPH P fixed point and hardware check</title>
  <desc id="desc">A PDF-safe schematic showing the P fixed point, a twelve-port hardware body, the golden-ratio coupling targets, and the separate OPH screen-capacity fixed point N_CRC = 3.31e122.</desc>
  <style>
    text {
      font-family: -apple-system, BlinkMacSystemFont, "Segoe UI", sans-serif;
      fill: #17202a;
    }
    .title { font-size: 28px; font-weight: 700; }
    .panel-title { font-size: 20px; font-weight: 700; }
    .small { font-size: 15px; fill: #667085; }
    .equation { font-size: 21px; font-weight: 700; }
    .panel { fill: #fbfcff; stroke: #c8d2df; stroke-width: 2; }
    .line { stroke: #c8d2df; stroke-width: 3; }
    .edge { stroke: #d7dee9; stroke-width: 2.5; }
    .port { fill: #ffffff; stroke: #17202a; stroke-width: 2; }
    .hot { fill: #2878c8; }
    .gold { stroke: #d6a72d; stroke-width: 9; fill: none; }
    .blue { stroke: #2878c8; stroke-width: 9; fill: none; stroke-dasharray: 14 12; }
    .arrow { stroke: #16875f; stroke-width: 5; fill: none; marker-end: url(#arrow); }
    .bar-bg { fill: #e8eef6; }
    .bar-edge { fill: #2878c8; }
    .bar-diag { fill: #d6a72d; }
    .bar-anti { fill: #16875f; }
    .pulse {
      fill: #2878c8;
      opacity: 0.18;
      animation: pulse 2.2s infinite ease-in-out;
      transform-origin: 705px 248px;
    }
    @keyframes pulse {
      0%, 100% { transform: scale(0.75); opacity: 0.12; }
      50% { transform: scale(1.35); opacity: 0.32; }
    }
  </style>
  <defs>
    <marker id="arrow" markerWidth="12" markerHeight="12" refX="9" refY="4" orient="auto" markerUnits="strokeWidth">
      <path d="M0,0 L0,8 L11,4 z" fill="#16875f"/>
    </marker>
  </defs>

  <rect width="1200" height="520" fill="#ffffff"/>
  <text x="46" y="48" class="title">OPH P fixed point and hardware check</text>
  <text x="46" y="76" class="small">The hardware claim is a symmetry and ratio test. Evidence means raw scans, hashes, controls, and verifier receipts.</text>
  <text x="46" y="100" class="small">Second closure value: N_CRC = 3.31e122 fixes the global public-record capacity.</text>

  <rect x="46" y="110" width="330" height="300" rx="14" class="panel"/>
  <text x="72" y="148" class="panel-title">1. Cell number</text>
  <circle cx="210" cy="255" r="72" class="gold"/>
  <circle cx="210" cy="255" r="95" class="blue"/>
  <path d="M283 255 C310 250, 326 237, 340 214" class="arrow"/>
  <text x="153" y="255" class="equation">golden ratio</text>
  <text x="79" y="371" class="equation">P = 1.6309682094...</text>

  <rect x="435" y="110" width="330" height="300" rx="14" class="panel"/>
  <text x="461" y="148" class="panel-title">2. Twelve-port body</text>
  <g transform="translate(600 260)">
    <line class="edge" x1="0" y1="-105" x2="52" y2="-90"/>
    <line class="edge" x1="52" y1="-90" x2="90" y2="-52"/>
    <line class="edge" x1="90" y1="-52" x2="105" y2="0"/>
    <line class="edge" x1="105" y1="0" x2="90" y2="52"/>
    <line class="edge" x1="90" y1="52" x2="52" y2="90"/>
    <line class="edge" x1="52" y1="90" x2="0" y2="105"/>
    <line class="edge" x1="0" y1="105" x2="-52" y2="90"/>
    <line class="edge" x1="-52" y1="90" x2="-90" y2="52"/>
    <line class="edge" x1="-90" y1="52" x2="-105" y2="0"/>
    <line class="edge" x1="-105" y1="0" x2="-90" y2="-52"/>
    <line class="edge" x1="-90" y1="-52" x2="-52" y2="-90"/>
    <line class="edge" x1="-52" y1="-90" x2="0" y2="-105"/>
    <line class="edge" x1="-90" y1="-52" x2="90" y2="52"/>
    <line class="edge" x1="90" y1="-52" x2="-90" y2="52"/>
    <line class="edge" x1="-105" y1="0" x2="105" y2="0"/>
    <circle cx="0" cy="-105" r="13" class="pulse"/>
    <circle cx="0" cy="-105" r="11" class="hot"/>
    <circle cx="52" cy="-90" r="10" class="port"/>
    <circle cx="90" cy="-52" r="10" class="port"/>
    <circle cx="105" cy="0" r="10" class="port"/>
    <circle cx="90" cy="52" r="10" class="port"/>
    <circle cx="52" cy="90" r="10" class="port"/>
    <circle cx="0" cy="105" r="10" class="port"/>
    <circle cx="-52" cy="90" r="10" class="port"/>
    <circle cx="-90" cy="52" r="10" class="port"/>
    <circle cx="-105" cy="0" r="10" class="port"/>
    <circle cx="-90" cy="-52" r="10" class="port"/>
    <circle cx="-52" cy="-90" r="10" class="port"/>
  </g>
  <text x="461" y="382" class="small">Pulse one port. Read every response.</text>

  <rect x="824" y="110" width="330" height="300" rx="14" class="panel"/>
  <text x="850" y="148" class="panel-title">3. Coupling targets</text>
  <text x="850" y="194" class="small">edge response</text>
  <rect x="850" y="210" width="250" height="20" rx="4" class="bar-bg"/>
  <rect x="850" y="210" width="250" height="20" rx="4" class="bar-edge"/>
  <text x="1112" y="227" class="small">1</text>

  <text x="850" y="267" class="small">diagonal response</text>
  <rect x="850" y="283" width="250" height="20" rx="4" class="bar-bg"/>
  <rect x="850" y="283" width="96" height="20" rx="4" class="bar-diag"/>
  <text x="962" y="300" class="small">0.381966...</text>

  <text x="850" y="340" class="small">opposite response</text>
  <rect x="850" y="356" width="250" height="20" rx="4" class="bar-bg"/>
  <rect x="850" y="356" width="37" height="20" rx="4" class="bar-anti"/>
  <text x="904" y="373" class="small">0.145898...</text>

  <line x1="46" y1="455" x2="1154" y2="455" class="line"/>
  <text x="46" y="488" class="equation">Kill condition: the calibrated scan excludes these plateaus, or controls produce the same pattern.</text>
</svg>
