<svg xmlns="http://www.w3.org/2000/svg" width="960" height="500" viewBox="0 0 960 500" role="img" aria-labelledby="title desc">
  <title id="title">Boundary ledger encoding bulk records</title>
  <desc id="desc">Boundary cells carry a ledger whose correlated entries reconstruct bulk events.</desc>
  <rect width="960" height="500" fill="#f8f5ef"/>
  <circle cx="480" cy="252" r="175" fill="#fffaf0" stroke="#2e2a25" stroke-width="4"/>
  <circle cx="480" cy="252" r="76" fill="#e8d6ad" stroke="#2e2a25" stroke-width="3"/>
  <g fill="#405d73" stroke="#2e2a25" stroke-width="2">
    <rect x="462" y="58" width="36" height="45" rx="5"/>
    <rect x="613" y="107" width="36" height="45" rx="5" transform="rotate(38 631 129)"/>
    <rect x="698" y="237" width="36" height="45" rx="5" transform="rotate(84 716 259)"/>
    <rect x="609" y="363" width="36" height="45" rx="5" transform="rotate(139 627 385)"/>
    <rect x="314" y="363" width="36" height="45" rx="5" transform="rotate(221 332 385)"/>
    <rect x="226" y="237" width="36" height="45" rx="5" transform="rotate(276 244 259)"/>
    <rect x="311" y="107" width="36" height="45" rx="5" transform="rotate(322 329 129)"/>
  </g>
  <g stroke="#c85b43" stroke-width="4" fill="none" stroke-linecap="round">
    <path d="M480 102 C440 158 430 206 480 252"/>
    <path d="M631 129 C575 158 530 198 480 252"/>
    <path d="M716 259 C638 244 560 246 480 252"/>
    <path d="M332 385 C380 335 425 292 480 252"/>
  </g>
  <g font-family="Arial, sans-serif" fill="#2e2a25" font-weight="700">
    <text x="350" y="256" font-size="24">bulk event</text>
    <text x="480" y="456" text-anchor="middle" font-size="21">boundary entries agree by correlation,</text>
    <text x="480" y="482" text-anchor="middle" font-size="21">not by volume storage</text>
  </g>
</svg>
