<?xml version="1.0" encoding="UTF-8"?>
<svg viewBox="0 0 500 350" class="w-full max-w-md mx-auto" xmlns="http://www.w3.org/2000/svg"><defs><marker id="cf-arrow" markerWidth="7" markerHeight="5" refX="7" refY="2.5" orient="auto"><path d="M0,0 L7,2.5 L0,5" fill="hsl(175,70%,50%)"></path></marker></defs><text x="250" y="24" text-anchor="middle" fill="hsl(175,70%,50%)" font-family="monospace" font-size="13" font-weight="600">CONSENSUS CONVERGENCE</text><circle cx="120" cy="55" r="5" fill="hsl(260,60%,55%)" fill-opacity="0.6" stroke="hsl(260,60%,55%)" stroke-width="1"></circle><circle cx="170" cy="67" r="5" fill="hsl(260,60%,55%)" fill-opacity="0.6" stroke="hsl(260,60%,55%)" stroke-width="1"></circle><circle cx="220" cy="55" r="5" fill="hsl(260,60%,55%)" fill-opacity="0.6" stroke="hsl(260,60%,55%)" stroke-width="1"></circle><circle cx="280" cy="67" r="5" fill="hsl(260,60%,55%)" fill-opacity="0.6" stroke="hsl(260,60%,55%)" stroke-width="1"></circle><circle cx="330" cy="55" r="5" fill="hsl(260,60%,55%)" fill-opacity="0.6" stroke="hsl(260,60%,55%)" stroke-width="1"></circle><circle cx="380" cy="67" r="5" fill="hsl(260,60%,55%)" fill-opacity="0.6" stroke="hsl(260,60%,55%)" stroke-width="1"></circle><text x="250" y="50" text-anchor="middle" fill="hsl(260,50%,60%)" font-family="monospace" font-size="9">one source, many schedules</text><path d="M120,67 C120,120 200,200 250,280" fill="none" stroke="hsl(175,70%,50%)" stroke-width="0.8" stroke-opacity="0.4"></path><path d="M170,61 C175,130 220,200 250,280" fill="none" stroke="hsl(175,70%,50%)" stroke-width="0.8" stroke-opacity="0.4"></path><path d="M220,67 C225,140 240,210 250,280" fill="none" stroke="hsl(175,70%,50%)" stroke-width="0.8" stroke-opacity="0.5"></path><path d="M280,55 C278,140 260,210 250,280" fill="none" stroke="hsl(175,70%,50%)" stroke-width="0.8" stroke-opacity="0.5"></path><path d="M330,67 C320,140 275,210 250,280" fill="none" stroke="hsl(175,70%,50%)" stroke-width="0.8" stroke-opacity="0.4"></path><path d="M380,61 C370,130 300,210 250,280" fill="none" stroke="hsl(175,70%,50%)" stroke-width="0.8" stroke-opacity="0.4"></path><path d="M100,45 Q250,180 250,290" fill="none" stroke="hsl(175,70%,50%)" stroke-width="1" stroke-opacity="0.3" stroke-dasharray="4,4"></path><path d="M400,45 Q250,180 250,290" fill="none" stroke="hsl(175,70%,50%)" stroke-width="1" stroke-opacity="0.3" stroke-dasharray="4,4"></path><text x="155" y="150" fill="hsl(215,15%,50%)" font-family="monospace" font-size="8" transform="rotate(-20,155,150)">T₁ · T₂ · T₃</text><text x="315" y="150" fill="hsl(215,15%,50%)" font-family="monospace" font-size="8" transform="rotate(20,315,150)">T₃ · T₁ · T₂</text><circle cx="250" cy="290" r="8" fill="hsl(45,90%,55%)" fill-opacity="0.3" stroke="hsl(45,90%,55%)" stroke-width="2"></circle><circle cx="250" cy="290" r="3" fill="hsl(45,90%,55%)"></circle><text x="250" y="320" text-anchor="middle" fill="hsl(45,90%,60%)" font-family="monospace" font-size="12" font-weight="600">nf(s)</text><text x="250" y="338" text-anchor="middle" fill="hsl(210,20%,55%)" font-family="sans-serif" font-size="10" font-style="italic">unique normal form</text></svg>
